<?xml version="1.0" standalone="no"?>
<!DOCTYPE svg PUBLIC "-//W3C//DTD SVG 20010904//EN"
 "http://www.w3.org/TR/2001/REC-SVG-20010904/DTD/svg10.dtd">
<svg version="1.0" xmlns="http://www.w3.org/2000/svg"
 width="532.000000pt" height="532.000000pt" viewBox="0 0 532.000000 532.000000"
 preserveAspectRatio="xMidYMid meet">
<metadata>
Created by potrace 1.11, written by Peter Selinger 2001-2013
</metadata>
<g transform="translate(0.000000,532.000000) scale(0.100000,-0.100000)"
fill="#000000" stroke="none">
<path d="M2737 5234 c-1 -1 -137 -5 -302 -8 -1002 -22 -1147 -33 -1351 -101
-124 -41 -321 -138 -420 -207 -218 -150 -426 -431 -517 -698 -31 -90 -64 -249
-72 -345 -4 -38 -8 -76 -11 -83 -22 -70 -22 -1014 1 -1127 2 -11 6 -64 10
-117 21 -371 168 -704 427 -965 l72 -74 -34 -27 c-137 -104 -219 -264 -242
-477 -14 -119 -2 -234 33 -342 22 -67 102 -206 159 -273 93 -113 344 -227 613
-280 91 -18 136 -21 275 -18 164 3 168 4 247 38 44 19 114 57 155 85 41 28 80
54 87 58 6 4 30 -9 55 -30 63 -53 170 -99 310 -133 170 -41 170 -41 293 -48
346 -22 697 53 855 180 19 15 38 28 43 28 5 0 46 -24 90 -53 85 -56 137 -82
222 -113 97 -34 395 -16 610 37 160 40 354 139 438 223 77 77 174 246 202 351
73 279 -27 627 -217 752 -38 25 -38 26 -21 47 10 12 20 23 23 26 24 22 144
168 183 222 87 123 155 270 191 413 20 82 22 93 51 317 15 108 32 237 39 285
16 103 20 876 5 983 -16 118 -18 134 -24 205 -8 88 -43 313 -54 340 -32 80
-102 213 -147 280 -97 144 -166 207 -394 358 -208 138 -361 202 -535 222 -27
3 -61 8 -75 10 -14 2 -65 7 -115 10 -49 3 -112 7 -140 10 -27 2 -108 7 -180
10 -71 4 -148 8 -170 10 -103 10 -660 26 -668 19z m828 -218 c66 -4 145 -9
175 -11 30 -2 89 -7 130 -10 182 -15 319 -60 482 -158 225 -135 419 -308 524
-467 80 -121 134 -315 163 -595 11 -104 11 -679 0 -815 -17 -223 -36 -366 -70
-535 -54 -270 -179 -517 -348 -686 -64 -64 -93 -85 -181 -127 -168 -82 -414
-156 -730 -221 -245 -50 -313 -54 -995 -55 -573 0 -827 5 -910 19 -435 75
-690 142 -889 234 -234 108 -374 268 -503 571 -49 117 -76 217 -102 380 -57
351 -66 476 -66 860 1 341 18 518 61 650 32 93 109 255 162 336 47 72 213 240
315 318 209 160 482 276 685 291 43 4 99 8 126 10 26 2 114 7 195 11 80 4 147
8 149 9 6 6 1510 -3 1627 -9z m-2485 -3666 c138 -47 190 -114 190 -247 -1
-110 -52 -193 -121 -193 -39 0 -44 15 -23 76 17 51 17 54 0 73 -20 22 -99 44
-136 37 -14 -2 -33 -5 -43 -5 -28 -1 -108 -82 -130 -130 -11 -25 -21 -77 -24
-120 -5 -64 -2 -85 15 -123 46 -104 155 -182 290 -209 138 -26 338 9 426 76
53 40 98 124 126 239 21 83 26 154 30 399 0 13 109 5 131 -11 18 -13 20 -24
18 -160 -6 -515 -83 -679 -354 -757 -138 -41 -498 21 -655 112 -126 73 -240
184 -287 280 -26 54 -28 66 -28 183 0 134 19 220 70 321 49 96 85 124 210 166
86 29 197 26 295 -7z m3450 1 c89 -30 134 -62 175 -124 61 -92 82 -172 94
-357 l7 -105 -38 -75 c-88 -178 -272 -314 -498 -368 -112 -27 -166 -33 -329
-37 l-136 -3 -67 35 c-100 52 -152 102 -193 186 -56 116 -71 209 -81 509 l-7
198 27 10 c39 14 136 13 141 -2 2 -7 6 -92 9 -188 6 -191 19 -256 65 -348 34
-66 58 -91 124 -125 72 -39 144 -50 296 -45 120 3 142 7 191 29 73 35 166 129
181 183 14 51 6 189 -13 236 -46 108 -199 171 -277 113 -37 -28 -44 -67 -20
-114 24 -44 19 -59 -20 -59 -41 0 -91 38 -119 90 -21 40 -23 54 -18 123 3 45
13 95 23 115 21 43 120 114 191 137 66 21 208 14 292 -14z m-3066 -109 c72
-39 86 -64 90 -150 5 -143 -32 -314 -80 -372 -29 -34 -90 -68 -173 -95 -127
-41 -309 16 -375 118 -24 36 -26 77 -9 144 19 79 57 123 103 123 30 0 32 -2
26 -27 -3 -16 -9 -51 -12 -79 -6 -44 -4 -54 15 -71 35 -33 112 -42 182 -23 37
10 110 73 140 120 38 59 48 202 23 313 -8 35 6 35 70 -1z m2446 20 c0 -4 -7
-38 -15 -77 -24 -117 -1 -223 67 -300 55 -62 102 -85 177 -85 89 0 113 15 135
84 4 11 -4 36 -20 64 -27 46 -23 61 18 62 61 0 107 -70 115 -173 5 -78 -15
-120 -78 -163 -126 -84 -291 -84 -437 2 -63 37 -96 113 -124 282 -23 143 -20
182 23 236 31 39 139 93 139 68z m-1699 -79 c5 -5 11 -55 14 -110 4 -104 28
-198 65 -258 35 -57 86 -95 176 -132 79 -33 98 -37 174 -36 104 0 228 37 292
86 89 68 137 178 145 335 5 82 9 105 23 112 9 5 61 10 116 12 l99 3 14 -50
c19 -68 21 -443 3 -540 -30 -160 -104 -244 -263 -300 -112 -40 -437 -63 -621
-44 -95 10 -237 48 -299 80 -86 43 -144 114 -167 204 -37 142 -38 536 -1 632
l9 25 106 -4 c57 -3 109 -9 115 -15z m244 -15 c14 -6 25 -14 26 -17 1 -3 2
-29 4 -57 6 -135 145 -213 253 -141 45 29 69 75 78 144 10 74 18 83 72 83 27
0 53 -5 60 -12 19 -19 14 -129 -8 -201 -26 -85 -55 -118 -141 -161 -65 -33
-74 -35 -157 -32 -100 3 -159 26 -223 86 -47 44 -79 142 -79 240 0 63 2 69 23
73 42 8 66 7 92 -5z m165 -37 c14 -54 34 -68 54 -39 9 12 16 35 16 50 0 23 4
28 25 28 22 0 25 -4 25 -39 0 -50 -18 -99 -40 -111 -28 -15 -83 -12 -107 5
-41 29 -43 145 -3 145 14 0 22 -11 30 -39z"/>
<path d="M2397 4664 c-1 -1 -94 -4 -207 -8 -260 -8 -303 -12 -480 -42 -377
-66 -645 -214 -799 -443 -164 -243 -219 -534 -187 -996 4 -60 9 -119 11 -130
2 -11 7 -49 10 -85 24 -272 106 -540 208 -682 55 -78 135 -154 213 -204 226
-145 698 -293 1019 -319 44 -4 94 -9 110 -11 71 -8 814 -4 863 6 146 27 504
115 599 146 299 99 513 246 617 424 83 142 164 443 191 710 3 30 8 73 11 95 7
59 6 417 -1 510 -26 317 -185 609 -418 767 -163 111 -452 204 -722 233 -33 4
-73 8 -90 10 -96 11 -340 18 -623 19 -178 1 -324 0 -325 0z m909 -129 c257
-25 496 -71 614 -119 264 -107 492 -394 545 -684 11 -57 13 -141 11 -322 -2
-135 -6 -254 -9 -265 -2 -11 -8 -47 -11 -80 -17 -144 -58 -368 -81 -449 -70
-241 -218 -422 -420 -516 -95 -43 -183 -73 -200 -67 -17 7 -15 14 30 112 59
127 103 300 99 382 -4 64 -42 192 -74 248 -32 56 -145 173 -209 216 -60 40
-180 87 -280 111 -47 11 -104 25 -126 30 -28 7 -55 26 -90 61 -60 62 -105 143
-191 343 -29 67 -94 270 -94 294 0 14 -7 36 -17 49 l-16 24 -12 -24 c-7 -13
-27 -66 -45 -117 -86 -252 -256 -587 -308 -607 -10 -3 -73 -17 -142 -31 -353
-70 -558 -173 -631 -315 -82 -161 -106 -384 -57 -525 26 -75 92 -194 130 -234
29 -31 58 -72 58 -82 0 -27 -232 44 -394 121 -189 89 -270 151 -345 263 -74
110 -155 344 -176 508 -3 25 -8 61 -10 80 -20 159 -27 617 -12 760 11 101 32
180 73 268 99 216 309 404 529 475 95 31 363 78 525 93 41 3 77 8 79 10 11 10
1141 0 1257 -11z m-501 -972 c13 -91 82 -257 146 -350 16 -25 28 -47 26 -49
-7 -8 -415 -9 -423 -2 -4 4 8 31 26 60 66 105 100 170 136 261 59 151 76 166
89 80z m342 -526 c4 -3 28 -8 53 -11 231 -31 423 -155 511 -330 36 -73 39 -84
39 -163 0 -249 -139 -542 -278 -587 -63 -20 -298 -64 -397 -73 -165 -16 -784
-8 -900 12 -142 25 -180 42 -251 117 -111 116 -181 228 -205 328 -8 32 -14
110 -14 185 0 122 2 133 28 187 61 124 221 235 422 293 166 48 230 53 622 50
199 -2 365 -5 370 -8z"/>
<path d="M3474 3946 c-94 -29 -148 -102 -148 -202 -1 -49 4 -69 25 -100 35
-53 115 -96 177 -96 117 1 222 96 222 202 0 130 -148 234 -276 196z m153 -120
c18 -19 33 -45 33 -56 0 -33 -27 -77 -63 -104 -101 -78 -237 43 -168 148 29
43 59 57 115 53 42 -4 55 -10 83 -41z"/>
<path d="M1984 3910 c-47 -15 -121 -93 -134 -141 -30 -111 45 -225 161 -243
74 -11 169 35 211 104 54 86 14 215 -81 264 -37 20 -118 27 -157 16z m95 -95
c42 -21 81 -72 81 -105 0 -37 -43 -88 -83 -98 -72 -19 -152 30 -163 99 -5 32
-2 41 33 77 44 46 81 54 132 27z"/>
<path d="M2659 2569 c-88 -13 -139 -56 -160 -132 -8 -32 -7 -48 5 -82 33 -85
96 -114 239 -110 75 3 95 7 140 33 57 32 77 63 85 129 4 36 0 50 -24 84 -15
22 -45 49 -66 60 -42 22 -142 30 -219 18z m176 -98 c24 -13 31 -25 33 -54 3
-32 -2 -43 -28 -67 -26 -25 -41 -30 -80 -30 -102 0 -160 32 -160 88 0 77 143
115 235 63z"/>
</g>
</svg>
